{"asset":{"version":"2.0","generator":"GLTFExporter"},"scenes":[{"nodes":[41,43,45]}],"scene":0,"nodes":[{"mesh":0},{"mesh":1},{"mesh":2},{"mesh":3},{"mesh":4},{"mesh":5},{"mesh":6},{"mesh":7},{"mesh":8},{"mesh":9},{"mesh":10},{"mesh":11},{"mesh":12},{"mesh":13},{"mesh":14},{"mesh":15},{"mesh":16},{"mesh":17},{"mesh":18},{"mesh":19},{"mesh":20},{"mesh":21},{"mesh":22},{"mesh":23},{"mesh":24},{"mesh":25},{"mesh":26},{"mesh":27},{"mesh":28},{"mesh":29},{"mesh":30},{"mesh":31},{"mesh":32},{"mesh":33},{"mesh":34},{"mesh":35},{"mesh":36},{"mesh":37},{"mesh":38},{"mesh":39},{},{"children":[0,1,2,3,4,5,6,7,8,9,10,11,12,13,14,15,16,17,18,19,20,21,22,23,24,25,26,27,28,29,30,31,32,33,34,35,36,37,38,39,40]},{"mesh":40},{"children":[42]},{},{"children":[44]}],"bufferViews":[{"buffer":0,"byteOffset":0,"byteLength":24,"target":34962,"byteStride":12},{"buffer":0,"byteOffset":24,"byteLength":24,"target":34962,"byteStride":12},{"buffer":0,"byteOffset":48,"byteLength":24,"target":34962,"byteStride":12},{"buffer":0,"byteOffset":72,"byteLength":24,"target":34962,"byteStride":12},{"buffer":0,"byteOffset":96,"byteLength":24,"target":34962,"byteStride":12},{"buffer":0,"byteOffset":120,"byteLength":24,"target":34962,"byteStride":12},{"buffer":0,"byteOffset":144,"byteLength":24,"target":34962,"byteStride":12},{"buffer":0,"byteOffset":168,"byteLength":24,"target":34962,"byteStride":12},{"buffer":0,"byteOffset":192,"byteLength":24,"target":34962,"byteStride":12},{"buffer":0,"byteOffset":216,"byteLength":24,"target":34962,"byteStride":12},{"buffer":0,"byteOffset":240,"byteLength":24,"target":34962,"byteStride":12},{"buffer":0,"byteOffset":264,"byteLength":24,"target":34962,"byteStride":12},{"buffer":0,"byteOffset":288,"byteLength":24,"target":34962,"byteStride":12},{"buffer":0,"byteOffset":312,"byteLength":24,"target":34962,"byteStride":12},{"buffer":0,"byteOffset":336,"byteLength":24,"target":34962,"byteStride":12},{"buffer":0,"byteOffset":360,"byteLength":24,"target":34962,"byteStride":12},{"buffer":0,"byteOffset":384,"byteLength":24,"target":34962,"byteStride":12},{"buffer":0,"byteOffset":408,"byteLength":24,"target":34962,"byteStride":12},{"buffer":0,"byteOffset":432,"byteLength":24,"target":34962,"byteStride":12},{"buffer":0,"byteOffset":456,"byteLength":24,"target":34962,"byteStride":12},{"buffer":0,"byteOffset":480,"byteLength":24,"target":34962,"byteStride":12},{"buffer":0,"byteOffset":504,"byteLength":24,"target":34962,"byteStride":12},{"buffer":0,"byteOffset":528,"byteLength":24,"target":34962,"byteStride":12},{"buffer":0,"byteOffset":552,"byteLength":24,"target":34962,"byteStride":12},{"buffer":0,"byteOffset":576,"byteLength":24,"target":34962,"byteStride":12},{"buffer":0,"byteOffset":600,"byteLength":24,"target":34962,"byteStride":12},{"buffer":0,"byteOffset":624,"byteLength":24,"target":34962,"byteStride":12},{"buffer":0,"byteOffset":648,"byteLength":24,"target":34962,"byteStride":12},{"buffer":0,"byteOffset":672,"byteLength":24,"target":34962,"byteStride":12},{"buffer":0,"byteOffset":696,"byteLength":24,"target":34962,"byteStride":12},{"buffer":0,"byteOffset":720,"byteLength":24,"target":34962,"byteStride":12},{"buffer":0,"byteOffset":744,"byteLength":24,"target":34962,"byteStride":12},{"buffer":0,"byteOffset":768,"byteLength":24,"target":34962,"byteStride":12},{"buffer":0,"byteOffset":792,"byteLength":24,"target":34962,"byteStride":12},{"buffer":0,"byteOffset":816,"byteLength":24,"target":34962,"byteStride":12},{"buffer":0,"byteOffset":840,"byteLength":24,"target":34962,"byteStride":12},{"buffer":0,"byteOffset":864,"byteLength":24,"target":34962,"byteStride":12},{"buffer":0,"byteOffset":888,"byteLength":24,"target":34962,"byteStride":12},{"buffer":0,"byteOffset":912,"byteLength":24,"target":34962,"byteStride":12},{"buffer":0,"byteOffset":936,"byteLength":24,"target":34962,"byteStride":12},{"buffer":0,"byteOffset":960,"byteLength":27768,"target":34962,"byteStride":12}],"buffers":[{"byteLength":28728,"uri":"data:application/octet-stream;base64,"}],"accessors":[{"bufferView":0,"componentType":5126,"count":2,"max":[1.553346872329712,0.9372868537902832,-0.34480565786361694],"min":[1.256508469581604,0.9372736215591431,-0.7732073068618774],"type":"VEC3"},{"bufferView":1,"componentType":5126,"count":2,"max":[1.8610674142837524,0.9372736215591431,-0.34480565786361694],"min":[1.553346872329712,0.7087838649749756,-0.4029882252216339],"type":"VEC3"},{"bufferView":2,"componentType":5126,"count":2,"max":[1.8610674142837524,0.7087838649749756,0.5885065793991089],"min":[0.4303670823574066,0.7087073922157288,-0.4029882252216339],"type":"VEC3"},{"bufferView":3,"componentType":5126,"count":2,"max":[1.4189952611923218,0.9372868537902832,-0.7732073068618774],"min":[1.256508469581604,0.7087817788124084,-1.040879487991333],"type":"VEC3"},{"bufferView":4,"componentType":5126,"count":2,"max":[1.8610674142837524,0.7087838649749756,-0.4029882252216339],"min":[1.4189952611923218,0.7087817788124084,-1.040879487991333],"type":"VEC3"},{"bufferView":5,"componentType":5126,"count":2,"max":[1.4189952611923218,0.7087817788124084,-0.0493849478662014],"min":[-0.011708336882293224,0.7087104916572571,-1.040879487991333],"type":"VEC3"},{"bufferView":6,"componentType":5126,"count":2,"max":[0.4303670823574066,0.7087104916572571,0.5885065793991089],"min":[-0.011708336882293224,0.7087073922157288,-0.0493849478662014],"type":"VEC3"},{"bufferView":7,"componentType":5126,"count":2,"max":[0.5927358865737915,0.8229848742485046,0.5885065793991089],"min":[0.4303670823574066,0.7087073922157288,0.3209305703639984],"type":"VEC3"},{"bufferView":8,"componentType":5126,"count":2,"max":[1.256508469581604,0.9372868537902832,-0.5592055916786194],"min":[0.9477244019508362,0.9372627139091492,-0.7732073068618774],"type":"VEC3"},{"bufferView":9,"componentType":5126,"count":2,"max":[1.553346872329712,0.9372736215591431,-0.13082149624824524],"min":[1.2445826530456543,0.9372736215591431,-0.34480565786361694],"type":"VEC3"},{"bufferView":10,"componentType":5126,"count":2,"max":[0.9477244019508362,0.9372627139091492,-0.24370639026165009],"min":[0.4924817979335785,0.8229960799217224,-0.5592055916786194],"type":"VEC3"},{"bufferView":11,"componentType":5126,"count":2,"max":[0.789355993270874,0.8229960799217224,0.1846664994955063],"min":[0.4924817979335785,0.8229848146438599,-0.24370639026165009],"type":"VEC3"},{"bufferView":12,"componentType":5126,"count":2,"max":[1.2445826530456543,0.9372736215591431,0.1846664994955063],"min":[0.789355993270874,0.8229848146438599,-0.13082149624824524],"type":"VEC3"},{"bufferView":13,"componentType":5126,"count":2,"max":[0.789355993270874,0.8229848742485046,0.3209305703639984],"min":[0.5927358865737915,0.8229848146438599,0.1846664994955063],"type":"VEC3"},{"bufferView":14,"componentType":5126,"count":2,"max":[0.5927358865737915,0.8229848742485046,0.3209305703639984],"min":[0.29586151242256165,0.8229727149009705,-0.10743813961744308],"type":"VEC3"},{"bufferView":15,"componentType":5126,"count":2,"max":[0.4924817979335785,0.8229960799217224,-0.10743813961744308],"min":[0.29586151242256165,0.8229727149009705,-0.24370639026165009],"type":"VEC3"},{"bufferView":16,"componentType":5126,"count":2,"max":[0.29586151242256165,0.8229727149009705,-0.0493849478662014],"min":[-0.011708336882293224,0.7087104916572571,-0.10743813961744308],"type":"VEC3"},{"bufferView":17,"componentType":5126,"count":2,"max":[0.9477244019508362,1.3129390478134155,-0.5591936707496643],"min":[0.94770747423172,0.9372627139091492,-0.5592055916786194],"type":"VEC3"},{"bufferView":18,"componentType":5126,"count":2,"max":[1.2445826530456543,1.3129390478134155,-0.1308203935623169],"min":[1.2445809841156006,0.9372736215591431,-0.13082149624824524],"type":"VEC3"},{"bufferView":19,"componentType":5126,"count":2,"max":[1.553346872329712,1.312939167022705,-0.344791054725647],"min":[1.553325891494751,0.9372736215591431,-0.34480565786361694],"type":"VEC3"},{"bufferView":20,"componentType":5126,"count":2,"max":[1.553325891494751,1.312939167022705,-0.1308203935623169],"min":[1.2445809841156006,1.3129390478134155,-0.344791054725647],"type":"VEC3"},{"bufferView":21,"componentType":5126,"count":2,"max":[1.553325891494751,1.312939167022705,-0.344791054725647],"min":[1.2564576864242554,1.312939167022705,-0.7731682062149048],"type":"VEC3"},{"bufferView":22,"componentType":5126,"count":2,"max":[1.256508469581604,1.312939167022705,-0.7731682062149048],"min":[1.2564576864242554,0.9372868537902832,-0.7732073068618774],"type":"VEC3"},{"bufferView":23,"componentType":5126,"count":2,"max":[1.2564576864242554,1.312939167022705,-0.5591936707496643],"min":[0.94770747423172,1.3129390478134155,-0.7731682062149048],"type":"VEC3"},{"bufferView":24,"componentType":5126,"count":2,"max":[1.2445809841156006,1.3129390478134155,-0.1308203935623169],"min":[0.94770747423172,1.3129390478134155,-0.5591936707496643],"type":"VEC3"},{"bufferView":25,"componentType":5126,"count":2,"max":[1.2445826530456543,0.9372736215591431,-0.13082149624824524],"min":[0.9477244019508362,0.9372627139091492,-0.5592055916786194],"type":"VEC3"},{"bufferView":26,"componentType":5126,"count":2,"max":[0.4924817979335785,1.062206745147705,-0.24370531737804413],"min":[0.49247974157333374,0.8229960799217224,-0.24370639026165009],"type":"VEC3"},{"bufferView":27,"componentType":5126,"count":2,"max":[0.7893560528755188,1.062206745147705,0.18466651439666748],"min":[0.49247974157333374,1.062206745147705,-0.24370531737804413],"type":"VEC3"},{"bufferView":28,"componentType":5126,"count":2,"max":[0.7893560528755188,1.062206745147705,0.18466651439666748],"min":[0.789355993270874,0.8229848146438599,0.1846664994955063],"type":"VEC3"},{"bufferView":29,"componentType":5126,"count":2,"max":[0.7201030850410461,1.1193523406982422,-0.4014494717121124],"min":[0.7200936079025269,0.8801293969154358,-0.40145599842071533],"type":"VEC3"},{"bufferView":30,"componentType":5126,"count":2,"max":[1.0169696807861328,1.1193554401397705,0.02692253887653351],"min":[0.7200936079025269,1.1193523406982422,-0.4014494717121124],"type":"VEC3"},{"bufferView":31,"componentType":5126,"count":2,"max":[1.0169696807861328,1.1193554401397705,0.02692253887653351],"min":[1.0169696807861328,0.880129337310791,0.02692227065563202],"type":"VEC3"},{"bufferView":32,"componentType":5126,"count":2,"max":[1.0169696807861328,0.8801293969154358,0.02692227065563202],"min":[0.7201030850410461,0.880129337310791,-0.40145599842071533],"type":"VEC3"},{"bufferView":33,"componentType":5126,"count":2,"max":[1.2564654350280762,1.254914402961731,-0.5591955184936523],"min":[0.9477100968360901,1.2549103498458862,-0.7731742262840271],"type":"VEC3"},{"bufferView":34,"componentType":5126,"count":2,"max":[1.5533283948898315,1.2667298316955566,-0.13082052767276764],"min":[1.2445812225341797,1.2667288780212402,-0.34479284286499023],"type":"VEC3"},{"bufferView":35,"componentType":5126,"count":2,"max":[1.3989648818969727,0.9372747540473938,-0.23781362175941467],"min":[1.102116346359253,0.9372736215591431,-0.6662063598632812],"type":"VEC3"},{"bufferView":36,"componentType":5126,"count":2,"max":[1.062042236328125,0.7087419629096985,0.15074710547924042],"min":[0.620331883430481,0.7087411880493164,-0.4873962998390198],"type":"VEC3"},{"bufferView":37,"componentType":5126,"count":2,"max":[0.7231277227401733,0.708725094795227,0.3856194317340851],"min":[0.28141629695892334,0.7087230682373047,-0.2525237798690796],"type":"VEC3"},{"bufferView":38,"componentType":5126,"count":2,"max":[1.4009560346603394,0.7087593078613281,-0.08412475883960724],"min":[0.9592472910881042,0.7087588310241699,-0.7222687005996704],"type":"VEC3"},{"bufferView":39,"componentType":5126,"count":2,"max":[1.6308306455612183,0.7087715864181519,-0.24343104660511017],"min":[1.1891213655471802,0.7087703347206116,-0.8815741539001465],"type":"VEC3"},{"bufferView":40,"componentType":5126,"count":2314,"max":[1.6780896186828613,1.312939167022705,0.3835667669773102],"min":[0.1729866862297058,0.7087088823318481,-0.8556705117225647],"type":"VEC3"}],"materials":[{"pbrMetallicRoughness":{"baseColorFactor":[0.22745098039215686,0.22745098039215686,0.22745098039215686,1],"metallicFactor":0.5,"roughnessFactor":0.5}},{"pbrMetallicRoughness":{"baseColorFactor":[0.22745098039215686,0.22745098039215686,0.22745098039215686,1],"metallicFactor":0.5,"roughnessFactor":0.5}},{"pbrMetallicRoughness":{"baseColorFactor":[0.22745098039215686,0.22745098039215686,0.22745098039215686,1],"metallicFactor":0.5,"roughnessFactor":0.5}},{"pbrMetallicRoughness":{"baseColorFactor":[0.22745098039215686,0.22745098039215686,0.22745098039215686,1],"metallicFactor":0.5,"roughnessFactor":0.5}},{"pbrMetallicRoughness":{"baseColorFactor":[0.22745098039215686,0.22745098039215686,0.22745098039215686,1],"metallicFactor":0.5,"roughnessFactor":0.5}},{"pbrMetallicRoughness":{"baseColorFactor":[0.22745098039215686,0.22745098039215686,0.22745098039215686,1],"metallicFactor":0.5,"roughnessFactor":0.5}},{"pbrMetallicRoughness":{"baseColorFactor":[0.22745098039215686,0.22745098039215686,0.22745098039215686,1],"metallicFactor":0.5,"roughnessFactor":0.5}},{"pbrMetallicRoughness":{"baseColorFactor":[0.22745098039215686,0.22745098039215686,0.22745098039215686,1],"metallicFactor":0.5,"roughnessFactor":0.5}},{"pbrMetallicRoughness":{"baseColorFactor":[0.22745098039215686,0.22745098039215686,0.22745098039215686,1],"metallicFactor":0.5,"roughnessFactor":0.5}},{"pbrMetallicRoughness":{"baseColorFactor":[0.22745098039215686,0.22745098039215686,0.22745098039215686,1],"metallicFactor":0.5,"roughnessFactor":0.5}},{"pbrMetallicRoughness":{"baseColorFactor":[0.22745098039215686,0.22745098039215686,0.22745098039215686,1],"metallicFactor":0.5,"roughnessFactor":0.5}},{"pbrMetallicRoughness":{"baseColorFactor":[0.22745098039215686,0.22745098039215686,0.22745098039215686,1],"metallicFactor":0.5,"roughnessFactor":0.5}},{"pbrMetallicRoughness":{"baseColorFactor":[0.22745098039215686,0.22745098039215686,0.22745098039215686,1],"metallicFactor":0.5,"roughnessFactor":0.5}},{"pbrMetallicRoughness":{"baseColorFactor":[0.22745098039215686,0.22745098039215686,0.22745098039215686,1],"metallicFactor":0.5,"roughnessFactor":0.5}},{"pbrMetallicRoughness":{"baseColorFactor":[0.22745098039215686,0.22745098039215686,0.22745098039215686,1],"metallicFactor":0.5,"roughnessFactor":0.5}},{"pbrMetallicRoughness":{"baseColorFactor":[0.22745098039215686,0.22745098039215686,0.22745098039215686,1],"metallicFactor":0.5,"roughnessFactor":0.5}},{"pbrMetallicRoughness":{"baseColorFactor":[0.22745098039215686,0.22745098039215686,0.22745098039215686,1],"metallicFactor":0.5,"roughnessFactor":0.5}},{"pbrMetallicRoughness":{"baseColorFactor":[0.22745098039215686,0.22745098039215686,0.22745098039215686,1],"metallicFactor":0.5,"roughnessFactor":0.5}},{"pbrMetallicRoughness":{"baseColorFactor":[0.22745098039215686,0.22745098039215686,0.22745098039215686,1],"metallicFactor":0.5,"roughnessFactor":0.5}},{"pbrMetallicRoughness":{"baseColorFactor":[0.22745098039215686,0.22745098039215686,0.22745098039215686,1],"metallicFactor":0.5,"roughnessFactor":0.5}},{"pbrMetallicRoughness":{"baseColorFactor":[0.22745098039215686,0.22745098039215686,0.22745098039215686,1],"metallicFactor":0.5,"roughnessFactor":0.5}},{"pbrMetallicRoughness":{"baseColorFactor":[0.22745098039215686,0.22745098039215686,0.22745098039215686,1],"metallicFactor":0.5,"roughnessFactor":0.5}},{"pbrMetallicRoughness":{"baseColorFactor":[0.22745098039215686,0.22745098039215686,0.22745098039215686,1],"metallicFactor":0.5,"roughnessFactor":0.5}},{"pbrMetallicRoughness":{"baseColorFactor":[0.22745098039215686,0.22745098039215686,0.22745098039215686,1],"metallicFactor":0.5,"roughnessFactor":0.5}},{"pbrMetallicRoughness":{"baseColorFactor":[0.22745098039215686,0.22745098039215686,0.22745098039215686,1],"metallicFactor":0.5,"roughnessFactor":0.5}},{"pbrMetallicRoughness":{"baseColorFactor":[0.22745098039215686,0.22745098039215686,0.22745098039215686,1],"metallicFactor":0.5,"roughnessFactor":0.5}},{"pbrMetallicRoughness":{"baseColorFactor":[0.22745098039215686,0.22745098039215686,0.22745098039215686,1],"metallicFactor":0.5,"roughnessFactor":0.5}},{"pbrMetallicRoughness":{"baseColorFactor":[0.22745098039215686,0.22745098039215686,0.22745098039215686,1],"metallicFactor":0.5,"roughnessFactor":0.5}},{"pbrMetallicRoughness":{"baseColorFactor":[0.22745098039215686,0.22745098039215686,0.22745098039215686,1],"metallicFactor":0.5,"roughnessFactor":0.5}},{"pbrMetallicRoughness":{"baseColorFactor":[0.22745098039215686,0.22745098039215686,0.22745098039215686,1],"metallicFactor":0.5,"roughnessFactor":0.5}},{"pbrMetallicRoughness":{"baseColorFactor":[0.22745098039215686,0.22745098039215686,0.22745098039215686,1],"metallicFactor":0.5,"roughnessFactor":0.5}},{"pbrMetallicRoughness":{"baseColorFactor":[0.22745098039215686,0.22745098039215686,0.22745098039215686,1],"metallicFactor":0.5,"roughnessFactor":0.5}},{"pbrMetallicRoughness":{"baseColorFactor":[0.22745098039215686,0.22745098039215686,0.22745098039215686,1],"metallicFactor":0.5,"roughnessFactor":0.5}},{"pbrMetallicRoughness":{"baseColorFactor":[0.22745098039215686,0.22745098039215686,0.22745098039215686,1],"metallicFactor":0.5,"roughnessFactor":0.5}},{"pbrMetallicRoughness":{"baseColorFactor":[0.22745098039215686,0.22745098039215686,0.22745098039215686,1],"metallicFactor":0.5,"roughnessFactor":0.5}},{"pbrMetallicRoughness":{"baseColorFactor":[0.22745098039215686,0.22745098039215686,0.22745098039215686,1],"metallicFactor":0.5,"roughnessFactor":0.5}},{"pbrMetallicRoughness":{"baseColorFactor":[0.22745098039215686,0.22745098039215686,0.22745098039215686,1],"metallicFactor":0.5,"roughnessFactor":0.5}},{"pbrMetallicRoughness":{"baseColorFactor":[0.22745098039215686,0.22745098039215686,0.22745098039215686,1],"metallicFactor":0.5,"roughnessFactor":0.5}},{"pbrMetallicRoughness":{"baseColorFactor":[0.22745098039215686,0.22745098039215686,0.22745098039215686,1],"metallicFactor":0.5,"roughnessFactor":0.5}},{"pbrMetallicRoughness":{"baseColorFactor":[0.22745098039215686,0.22745098039215686,0.22745098039215686,1],"metallicFactor":0.5,"roughnessFactor":0.5}},{"pbrMetallicRoughness":{"baseColorFactor":[0,0,0,1],"metallicFactor":0.5,"roughnessFactor":0.5}}],"meshes":[{"primitives":[{"mode":3,"attributes":{"POSITION":0},"material":0}]},{"primitives":[{"mode":3,"attributes":{"POSITION":1},"material":1}]},{"primitives":[{"mode":3,"attributes":{"POSITION":2},"material":2}]},{"primitives":[{"mode":3,"attributes":{"POSITION":3},"material":3}]},{"primitives":[{"mode":3,"attributes":{"POSITION":4},"material":4}]},{"primitives":[{"mode":3,"attributes":{"POSITION":5},"material":5}]},{"primitives":[{"mode":3,"attributes":{"POSITION":6},"material":6}]},{"primitives":[{"mode":3,"attributes":{"POSITION":7},"material":7}]},{"primitives":[{"mode":3,"attributes":{"POSITION":8},"material":8}]},{"primitives":[{"mode":3,"attributes":{"POSITION":9},"material":9}]},{"primitives":[{"mode":3,"attributes":{"POSITION":10},"material":10}]},{"primitives":[{"mode":3,"attributes":{"POSITION":11},"material":11}]},{"primitives":[{"mode":3,"attributes":{"POSITION":12},"material":12}]},{"primitives":[{"mode":3,"attributes":{"POSITION":13},"material":13}]},{"primitives":[{"mode":3,"attributes":{"POSITION":14},"material":14}]},{"primitives":[{"mode":3,"attributes":{"POSITION":15},"material":15}]},{"primitives":[{"mode":3,"attributes":{"POSITION":16},"material":16}]},{"primitives":[{"mode":3,"attributes":{"POSITION":17},"material":17}]},{"primitives":[{"mode":3,"attributes":{"POSITION":18},"material":18}]},{"primitives":[{"mode":3,"attributes":{"POSITION":19},"material":19}]},{"primitives":[{"mode":3,"attributes":{"POSITION":20},"material":20}]},{"primitives":[{"mode":3,"attributes":{"POSITION":21},"material":21}]},{"primitives":[{"mode":3,"attributes":{"POSITION":22},"material":22}]},{"primitives":[{"mode":3,"attributes":{"POSITION":23},"material":23}]},{"primitives":[{"mode":3,"attributes":{"POSITION":24},"material":24}]},{"primitives":[{"mode":3,"attributes":{"POSITION":25},"material":25}]},{"primitives":[{"mode":3,"attributes":{"POSITION":26},"material":26}]},{"primitives":[{"mode":3,"attributes":{"POSITION":27},"material":27}]},{"primitives":[{"mode":3,"attributes":{"POSITION":28},"material":28}]},{"primitives":[{"mode":3,"attributes":{"POSITION":29},"material":29}]},{"primitives":[{"mode":3,"attributes":{"POSITION":30},"material":30}]},{"primitives":[{"mode":3,"attributes":{"POSITION":31},"material":31}]},{"primitives":[{"mode":3,"attributes":{"POSITION":32},"material":32}]},{"primitives":[{"mode":3,"attributes":{"POSITION":33},"material":33}]},{"primitives":[{"mode":3,"attributes":{"POSITION":34},"material":34}]},{"primitives":[{"mode":3,"attributes":{"POSITION":35},"material":35}]},{"primitives":[{"mode":3,"attributes":{"POSITION":36},"material":36}]},{"primitives":[{"mode":3,"attributes":{"POSITION":37},"material":37}]},{"primitives":[{"mode":3,"attributes":{"POSITION":38},"material":38}]},{"primitives":[{"mode":3,"attributes":{"POSITION":39},"material":39}]},{"primitives":[{"mode":1,"attributes":{"POSITION":40},"material":40}]}]}