{"asset":{"version":"2.0","generator":"GLTFExporter"},"scenes":[{"nodes":[41,43,45]}],"scene":0,"nodes":[{"mesh":0},{"mesh":1},{"mesh":2},{"mesh":3},{"mesh":4},{"mesh":5},{"mesh":6},{"mesh":7},{"mesh":8},{"mesh":9},{"mesh":10},{"mesh":11},{"mesh":12},{"mesh":13},{"mesh":14},{"mesh":15},{"mesh":16},{"mesh":17},{"mesh":18},{"mesh":19},{"mesh":20},{"mesh":21},{"mesh":22},{"mesh":23},{"mesh":24},{"mesh":25},{"mesh":26},{"mesh":27},{"mesh":28},{"mesh":29},{"mesh":30},{"mesh":31},{"mesh":32},{"mesh":33},{"mesh":34},{"mesh":35},{"mesh":36},{"mesh":37},{"mesh":38},{"mesh":39},{},{"children":[0,1,2,3,4,5,6,7,8,9,10,11,12,13,14,15,16,17,18,19,20,21,22,23,24,25,26,27,28,29,30,31,32,33,34,35,36,37,38,39,40]},{"mesh":40},{"children":[42]},{},{"children":[44]}],"bufferViews":[{"buffer":0,"byteOffset":0,"byteLength":24,"target":34962,"byteStride":12},{"buffer":0,"byteOffset":24,"byteLength":24,"target":34962,"byteStride":12},{"buffer":0,"byteOffset":48,"byteLength":24,"target":34962,"byteStride":12},{"buffer":0,"byteOffset":72,"byteLength":24,"target":34962,"byteStride":12},{"buffer":0,"byteOffset":96,"byteLength":24,"target":34962,"byteStride":12},{"buffer":0,"byteOffset":120,"byteLength":24,"target":34962,"byteStride":12},{"buffer":0,"byteOffset":144,"byteLength":24,"target":34962,"byteStride":12},{"buffer":0,"byteOffset":168,"byteLength":24,"target":34962,"byteStride":12},{"buffer":0,"byteOffset":192,"byteLength":24,"target":34962,"byteStride":12},{"buffer":0,"byteOffset":216,"byteLength":24,"target":34962,"byteStride":12},{"buffer":0,"byteOffset":240,"byteLength":24,"target":34962,"byteStride":12},{"buffer":0,"byteOffset":264,"byteLength":24,"target":34962,"byteStride":12},{"buffer":0,"byteOffset":288,"byteLength":24,"target":34962,"byteStride":12},{"buffer":0,"byteOffset":312,"byteLength":24,"target":34962,"byteStride":12},{"buffer":0,"byteOffset":336,"byteLength":24,"target":34962,"byteStride":12},{"buffer":0,"byteOffset":360,"byteLength":24,"target":34962,"byteStride":12},{"buffer":0,"byteOffset":384,"byteLength":24,"target":34962,"byteStride":12},{"buffer":0,"byteOffset":408,"byteLength":24,"target":34962,"byteStride":12},{"buffer":0,"byteOffset":432,"byteLength":24,"target":34962,"byteStride":12},{"buffer":0,"byteOffset":456,"byteLength":24,"target":34962,"byteStride":12},{"buffer":0,"byteOffset":480,"byteLength":24,"target":34962,"byteStride":12},{"buffer":0,"byteOffset":504,"byteLength":24,"target":34962,"byteStride":12},{"buffer":0,"byteOffset":528,"byteLength":24,"target":34962,"byteStride":12},{"buffer":0,"byteOffset":552,"byteLength":24,"target":34962,"byteStride":12},{"buffer":0,"byteOffset":576,"byteLength":24,"target":34962,"byteStride":12},{"buffer":0,"byteOffset":600,"byteLength":24,"target":34962,"byteStride":12},{"buffer":0,"byteOffset":624,"byteLength":24,"target":34962,"byteStride":12},{"buffer":0,"byteOffset":648,"byteLength":24,"target":34962,"byteStride":12},{"buffer":0,"byteOffset":672,"byteLength":24,"target":34962,"byteStride":12},{"buffer":0,"byteOffset":696,"byteLength":24,"target":34962,"byteStride":12},{"buffer":0,"byteOffset":720,"byteLength":24,"target":34962,"byteStride":12},{"buffer":0,"byteOffset":744,"byteLength":24,"target":34962,"byteStride":12},{"buffer":0,"byteOffset":768,"byteLength":24,"target":34962,"byteStride":12},{"buffer":0,"byteOffset":792,"byteLength":24,"target":34962,"byteStride":12},{"buffer":0,"byteOffset":816,"byteLength":24,"target":34962,"byteStride":12},{"buffer":0,"byteOffset":840,"byteLength":24,"target":34962,"byteStride":12},{"buffer":0,"byteOffset":864,"byteLength":24,"target":34962,"byteStride":12},{"buffer":0,"byteOffset":888,"byteLength":24,"target":34962,"byteStride":12},{"buffer":0,"byteOffset":912,"byteLength":24,"target":34962,"byteStride":12},{"buffer":0,"byteOffset":936,"byteLength":24,"target":34962,"byteStride":12},{"buffer":0,"byteOffset":960,"byteLength":27840,"target":34962,"byteStride":12}],"buffers":[{"byteLength":28800,"uri":"data:application/octet-stream;base64,"}],"accessors":[{"bufferView":0,"componentType":5126,"count":2,"max":[1.553346872329712,0.9372736215591431,-0.34480565786361694],"min":[1.256470799446106,0.9372736215591431,-0.7731771469116211],"type":"VEC3"},{"bufferView":1,"componentType":5126,"count":2,"max":[1.5535918474197388,0.9372736215591431,-0.34480565786361694],"min":[1.553346872329712,0.7087445855140686,-0.34497541189193726],"type":"VEC3"},{"bufferView":2,"componentType":5126,"count":2,"max":[1.5535918474197388,0.7087829113006592,0.42517080903053284],"min":[0.44235536456108093,0.7087445855140686,-0.34497541189193726],"type":"VEC3"},{"bufferView":3,"componentType":5126,"count":2,"max":[1.2564717531204224,0.9372736215591431,-0.7731771469116211],"min":[1.256470799446106,0.7087444067001343,-0.7731778621673584],"type":"VEC3"},{"bufferView":4,"componentType":5126,"count":2,"max":[1.5535918474197388,0.7087445855140686,-0.34497541189193726],"min":[1.2564717531204224,0.7087444067001343,-0.7731778621673584],"type":"VEC3"},{"bufferView":5,"componentType":5126,"count":2,"max":[1.2564717531204224,0.7087868452072144,-0.003194912103936076],"min":[0.14547061920166016,0.7087444067001343,-0.7731778621673584],"type":"VEC3"},{"bufferView":6,"componentType":5126,"count":2,"max":[0.44235536456108093,0.7087868452072144,0.42517080903053284],"min":[0.14547061920166016,0.7087829113006592,-0.003194912103936076],"type":"VEC3"},{"bufferView":7,"componentType":5126,"count":2,"max":[0.44235652685165405,0.8430679440498352,0.42517080903053284],"min":[0.44235536456108093,0.7087829113006592,0.4251694679260254],"type":"VEC3"},{"bufferView":8,"componentType":5126,"count":2,"max":[1.256470799446106,0.9372736215591431,-0.5592032074928284],"min":[0.9477299451828003,0.8632385730743408,-0.7731771469116211],"type":"VEC3"},{"bufferView":9,"componentType":5126,"count":2,"max":[1.553346872329712,0.9372736215591431,-0.13083206117153168],"min":[1.244606614112854,0.8632405996322632,-0.34480565786361694],"type":"VEC3"},{"bufferView":10,"componentType":5126,"count":2,"max":[0.9477299451828003,0.8632385730743408,-0.25327619910240173],"min":[0.5062957406044006,0.7456043362617493,-0.5592032074928284],"type":"VEC3"},{"bufferView":11,"componentType":5126,"count":2,"max":[0.8031769394874573,0.7456043362617493,0.17509377002716064],"min":[0.5062957406044006,0.7455942034721375,-0.25327619910240173],"type":"VEC3"},{"bufferView":12,"componentType":5126,"count":2,"max":[1.244606614112854,0.8632405996322632,0.17509377002716064],"min":[0.8031769394874573,0.7455942034721375,-0.13083206117153168],"type":"VEC3"},{"bufferView":13,"componentType":5126,"count":2,"max":[0.8031769394874573,0.8430679440498352,0.4251694679260254],"min":[0.44235652685165405,0.7455942034721375,0.17509377002716064],"type":"VEC3"},{"bufferView":14,"componentType":5126,"count":2,"max":[0.44235652685165405,0.8430724143981934,0.4251694679260254],"min":[0.1454724818468094,0.8430679440498352,-0.0031966394744813442],"type":"VEC3"},{"bufferView":15,"componentType":5126,"count":2,"max":[0.5062957406044006,0.8430724143981934,-0.0031966394744813442],"min":[0.1454724818468094,0.7456043362617493,-0.25327619910240173],"type":"VEC3"},{"bufferView":16,"componentType":5126,"count":2,"max":[0.1454724818468094,0.8430724143981934,-0.003194912103936076],"min":[0.14547061920166016,0.7087868452072144,-0.0031966394744813442],"type":"VEC3"},{"bufferView":17,"componentType":5126,"count":2,"max":[0.9477299451828003,1.3129390478134155,-0.5591936707496643],"min":[0.94770747423172,0.8632385730743408,-0.5592032074928284],"type":"VEC3"},{"bufferView":18,"componentType":5126,"count":2,"max":[1.244606614112854,1.3129390478134155,-0.1308203935623169],"min":[1.2445809841156006,0.8632405996322632,-0.13083206117153168],"type":"VEC3"},{"bufferView":19,"componentType":5126,"count":2,"max":[1.553346872329712,1.312939167022705,-0.344791054725647],"min":[1.553325891494751,0.9372736215591431,-0.34480565786361694],"type":"VEC3"},{"bufferView":20,"componentType":5126,"count":2,"max":[1.553325891494751,1.312939167022705,-0.1308203935623169],"min":[1.2445809841156006,1.3129390478134155,-0.344791054725647],"type":"VEC3"},{"bufferView":21,"componentType":5126,"count":2,"max":[1.553325891494751,1.312939167022705,-0.344791054725647],"min":[1.2564576864242554,1.312939167022705,-0.7731682062149048],"type":"VEC3"},{"bufferView":22,"componentType":5126,"count":2,"max":[1.256470799446106,1.312939167022705,-0.7731682062149048],"min":[1.2564576864242554,0.9372736215591431,-0.7731771469116211],"type":"VEC3"},{"bufferView":23,"componentType":5126,"count":2,"max":[1.2564576864242554,1.312939167022705,-0.5591936707496643],"min":[0.94770747423172,1.3129390478134155,-0.7731682062149048],"type":"VEC3"},{"bufferView":24,"componentType":5126,"count":2,"max":[1.2445809841156006,1.3129390478134155,-0.1308203935623169],"min":[0.94770747423172,1.3129390478134155,-0.5591936707496643],"type":"VEC3"},{"bufferView":25,"componentType":5126,"count":2,"max":[1.244606614112854,0.8632405996322632,-0.13083206117153168],"min":[0.9477299451828003,0.8632385730743408,-0.5592032074928284],"type":"VEC3"},{"bufferView":26,"componentType":5126,"count":2,"max":[0.5062957406044006,1.0629255771636963,-0.13873927295207977],"min":[0.3410392701625824,0.7456043362617493,-0.25327619910240173],"type":"VEC3"},{"bufferView":27,"componentType":5126,"count":2,"max":[0.6379185914993286,1.0629255771636963,0.2896301746368408],"min":[0.3410392701625824,1.062922477722168,-0.13873927295207977],"type":"VEC3"},{"bufferView":28,"componentType":5126,"count":2,"max":[0.8031769394874573,1.062922477722168,0.2896301746368408],"min":[0.6379185914993286,0.7455942034721375,0.17509377002716064],"type":"VEC3"},{"bufferView":29,"componentType":5126,"count":2,"max":[0.7270128726959229,1.1193523406982422,-0.4014494717121124],"min":[0.7200936079025269,0.8044214844703674,-0.40623968839645386],"type":"VEC3"},{"bufferView":30,"componentType":5126,"count":2,"max":[1.0169696807861328,1.1193554401397705,0.02692253887653351],"min":[0.7200936079025269,1.1193523406982422,-0.4014494717121124],"type":"VEC3"},{"bufferView":31,"componentType":5126,"count":2,"max":[1.0238921642303467,1.1193554401397705,0.02692253887653351],"min":[1.0169696807861328,0.8044174909591675,0.022130630910396576],"type":"VEC3"},{"bufferView":32,"componentType":5126,"count":2,"max":[1.0238921642303467,0.8044214844703674,0.022130630910396576],"min":[0.7270128726959229,0.8044174909591675,-0.40623968839645386],"type":"VEC3"},{"bufferView":33,"componentType":5126,"count":2,"max":[1.2564597129821777,1.2549123764038086,-0.5591951608657837],"min":[0.9477109313011169,1.2434762716293335,-0.7731695771217346],"type":"VEC3"},{"bufferView":34,"componentType":5126,"count":2,"max":[1.5533283948898315,1.2667298316955566,-0.1308218240737915],"min":[1.2445842027664185,1.257622241973877,-0.34479284286499023],"type":"VEC3"},{"bufferView":35,"componentType":5126,"count":2,"max":[1.3989768028259277,0.9002571105957031,-0.2378188967704773],"min":[1.1021002531051636,0.9002560973167419,-0.6661901473999023],"type":"VEC3"},{"bufferView":36,"componentType":5126,"count":2,"max":[0.9329825043678284,0.7087680697441101,0.08513998985290527],"min":[0.6362762451171875,0.708765983581543,-0.3433493375778198],"type":"VEC3"},{"bufferView":37,"componentType":5126,"count":2,"max":[0.6697449684143066,0.7087781429290771,0.2675777077674866],"min":[0.3730941414833069,0.7087751030921936,-0.16095012426376343],"type":"VEC3"},{"bufferView":38,"componentType":5126,"count":2,"max":[1.196219563484192,0.7087580561637878,-0.09729735553264618],"min":[0.8994582295417786,0.7087569236755371,-0.5257484912872314],"type":"VEC3"},{"bufferView":39,"componentType":5126,"count":2,"max":[1.374765157699585,0.7087512612342834,-0.22103893756866455],"min":[1.0779650211334229,0.7087507843971252,-0.6494631767272949],"type":"VEC3"},{"bufferView":40,"componentType":5126,"count":2320,"max":[1.4726991653442383,1.312939167022705,0.29315614700317383],"min":[0.2688426673412323,0.7087445259094238,-0.6951884627342224],"type":"VEC3"}],"materials":[{"pbrMetallicRoughness":{"baseColorFactor":[0.22745098039215686,0.22745098039215686,0.22745098039215686,1],"metallicFactor":0.5,"roughnessFactor":0.5}},{"pbrMetallicRoughness":{"baseColorFactor":[0.22745098039215686,0.22745098039215686,0.22745098039215686,1],"metallicFactor":0.5,"roughnessFactor":0.5}},{"pbrMetallicRoughness":{"baseColorFactor":[0.22745098039215686,0.22745098039215686,0.22745098039215686,1],"metallicFactor":0.5,"roughnessFactor":0.5}},{"pbrMetallicRoughness":{"baseColorFactor":[0.22745098039215686,0.22745098039215686,0.22745098039215686,1],"metallicFactor":0.5,"roughnessFactor":0.5}},{"pbrMetallicRoughness":{"baseColorFactor":[0.22745098039215686,0.22745098039215686,0.22745098039215686,1],"metallicFactor":0.5,"roughnessFactor":0.5}},{"pbrMetallicRoughness":{"baseColorFactor":[0.22745098039215686,0.22745098039215686,0.22745098039215686,1],"metallicFactor":0.5,"roughnessFactor":0.5}},{"pbrMetallicRoughness":{"baseColorFactor":[0.22745098039215686,0.22745098039215686,0.22745098039215686,1],"metallicFactor":0.5,"roughnessFactor":0.5}},{"pbrMetallicRoughness":{"baseColorFactor":[0.22745098039215686,0.22745098039215686,0.22745098039215686,1],"metallicFactor":0.5,"roughnessFactor":0.5}},{"pbrMetallicRoughness":{"baseColorFactor":[0.22745098039215686,0.22745098039215686,0.22745098039215686,1],"metallicFactor":0.5,"roughnessFactor":0.5}},{"pbrMetallicRoughness":{"baseColorFactor":[0.22745098039215686,0.22745098039215686,0.22745098039215686,1],"metallicFactor":0.5,"roughnessFactor":0.5}},{"pbrMetallicRoughness":{"baseColorFactor":[0.22745098039215686,0.22745098039215686,0.22745098039215686,1],"metallicFactor":0.5,"roughnessFactor":0.5}},{"pbrMetallicRoughness":{"baseColorFactor":[0.22745098039215686,0.22745098039215686,0.22745098039215686,1],"metallicFactor":0.5,"roughnessFactor":0.5}},{"pbrMetallicRoughness":{"baseColorFactor":[0.22745098039215686,0.22745098039215686,0.22745098039215686,1],"metallicFactor":0.5,"roughnessFactor":0.5}},{"pbrMetallicRoughness":{"baseColorFactor":[0.22745098039215686,0.22745098039215686,0.22745098039215686,1],"metallicFactor":0.5,"roughnessFactor":0.5}},{"pbrMetallicRoughness":{"baseColorFactor":[0.22745098039215686,0.22745098039215686,0.22745098039215686,1],"metallicFactor":0.5,"roughnessFactor":0.5}},{"pbrMetallicRoughness":{"baseColorFactor":[0.22745098039215686,0.22745098039215686,0.22745098039215686,1],"metallicFactor":0.5,"roughnessFactor":0.5}},{"pbrMetallicRoughness":{"baseColorFactor":[0.22745098039215686,0.22745098039215686,0.22745098039215686,1],"metallicFactor":0.5,"roughnessFactor":0.5}},{"pbrMetallicRoughness":{"baseColorFactor":[0.22745098039215686,0.22745098039215686,0.22745098039215686,1],"metallicFactor":0.5,"roughnessFactor":0.5}},{"pbrMetallicRoughness":{"baseColorFactor":[0.22745098039215686,0.22745098039215686,0.22745098039215686,1],"metallicFactor":0.5,"roughnessFactor":0.5}},{"pbrMetallicRoughness":{"baseColorFactor":[0.22745098039215686,0.22745098039215686,0.22745098039215686,1],"metallicFactor":0.5,"roughnessFactor":0.5}},{"pbrMetallicRoughness":{"baseColorFactor":[0.22745098039215686,0.22745098039215686,0.22745098039215686,1],"metallicFactor":0.5,"roughnessFactor":0.5}},{"pbrMetallicRoughness":{"baseColorFactor":[0.22745098039215686,0.22745098039215686,0.22745098039215686,1],"metallicFactor":0.5,"roughnessFactor":0.5}},{"pbrMetallicRoughness":{"baseColorFactor":[0.22745098039215686,0.22745098039215686,0.22745098039215686,1],"metallicFactor":0.5,"roughnessFactor":0.5}},{"pbrMetallicRoughness":{"baseColorFactor":[0.22745098039215686,0.22745098039215686,0.22745098039215686,1],"metallicFactor":0.5,"roughnessFactor":0.5}},{"pbrMetallicRoughness":{"baseColorFactor":[0.22745098039215686,0.22745098039215686,0.22745098039215686,1],"metallicFactor":0.5,"roughnessFactor":0.5}},{"pbrMetallicRoughness":{"baseColorFactor":[0.22745098039215686,0.22745098039215686,0.22745098039215686,1],"metallicFactor":0.5,"roughnessFactor":0.5}},{"pbrMetallicRoughness":{"baseColorFactor":[0.22745098039215686,0.22745098039215686,0.22745098039215686,1],"metallicFactor":0.5,"roughnessFactor":0.5}},{"pbrMetallicRoughness":{"baseColorFactor":[0.22745098039215686,0.22745098039215686,0.22745098039215686,1],"metallicFactor":0.5,"roughnessFactor":0.5}},{"pbrMetallicRoughness":{"baseColorFactor":[0.22745098039215686,0.22745098039215686,0.22745098039215686,1],"metallicFactor":0.5,"roughnessFactor":0.5}},{"pbrMetallicRoughness":{"baseColorFactor":[0.22745098039215686,0.22745098039215686,0.22745098039215686,1],"metallicFactor":0.5,"roughnessFactor":0.5}},{"pbrMetallicRoughness":{"baseColorFactor":[0.22745098039215686,0.22745098039215686,0.22745098039215686,1],"metallicFactor":0.5,"roughnessFactor":0.5}},{"pbrMetallicRoughness":{"baseColorFactor":[0.22745098039215686,0.22745098039215686,0.22745098039215686,1],"metallicFactor":0.5,"roughnessFactor":0.5}},{"pbrMetallicRoughness":{"baseColorFactor":[0.22745098039215686,0.22745098039215686,0.22745098039215686,1],"metallicFactor":0.5,"roughnessFactor":0.5}},{"pbrMetallicRoughness":{"baseColorFactor":[0.22745098039215686,0.22745098039215686,0.22745098039215686,1],"metallicFactor":0.5,"roughnessFactor":0.5}},{"pbrMetallicRoughness":{"baseColorFactor":[0.22745098039215686,0.22745098039215686,0.22745098039215686,1],"metallicFactor":0.5,"roughnessFactor":0.5}},{"pbrMetallicRoughness":{"baseColorFactor":[0.22745098039215686,0.22745098039215686,0.22745098039215686,1],"metallicFactor":0.5,"roughnessFactor":0.5}},{"pbrMetallicRoughness":{"baseColorFactor":[0.22745098039215686,0.22745098039215686,0.22745098039215686,1],"metallicFactor":0.5,"roughnessFactor":0.5}},{"pbrMetallicRoughness":{"baseColorFactor":[0.22745098039215686,0.22745098039215686,0.22745098039215686,1],"metallicFactor":0.5,"roughnessFactor":0.5}},{"pbrMetallicRoughness":{"baseColorFactor":[0.22745098039215686,0.22745098039215686,0.22745098039215686,1],"metallicFactor":0.5,"roughnessFactor":0.5}},{"pbrMetallicRoughness":{"baseColorFactor":[0.22745098039215686,0.22745098039215686,0.22745098039215686,1],"metallicFactor":0.5,"roughnessFactor":0.5}},{"pbrMetallicRoughness":{"baseColorFactor":[0,0,0,1],"metallicFactor":0.5,"roughnessFactor":0.5}}],"meshes":[{"primitives":[{"mode":3,"attributes":{"POSITION":0},"material":0}]},{"primitives":[{"mode":3,"attributes":{"POSITION":1},"material":1}]},{"primitives":[{"mode":3,"attributes":{"POSITION":2},"material":2}]},{"primitives":[{"mode":3,"attributes":{"POSITION":3},"material":3}]},{"primitives":[{"mode":3,"attributes":{"POSITION":4},"material":4}]},{"primitives":[{"mode":3,"attributes":{"POSITION":5},"material":5}]},{"primitives":[{"mode":3,"attributes":{"POSITION":6},"material":6}]},{"primitives":[{"mode":3,"attributes":{"POSITION":7},"material":7}]},{"primitives":[{"mode":3,"attributes":{"POSITION":8},"material":8}]},{"primitives":[{"mode":3,"attributes":{"POSITION":9},"material":9}]},{"primitives":[{"mode":3,"attributes":{"POSITION":10},"material":10}]},{"primitives":[{"mode":3,"attributes":{"POSITION":11},"material":11}]},{"primitives":[{"mode":3,"attributes":{"POSITION":12},"material":12}]},{"primitives":[{"mode":3,"attributes":{"POSITION":13},"material":13}]},{"primitives":[{"mode":3,"attributes":{"POSITION":14},"material":14}]},{"primitives":[{"mode":3,"attributes":{"POSITION":15},"material":15}]},{"primitives":[{"mode":3,"attributes":{"POSITION":16},"material":16}]},{"primitives":[{"mode":3,"attributes":{"POSITION":17},"material":17}]},{"primitives":[{"mode":3,"attributes":{"POSITION":18},"material":18}]},{"primitives":[{"mode":3,"attributes":{"POSITION":19},"material":19}]},{"primitives":[{"mode":3,"attributes":{"POSITION":20},"material":20}]},{"primitives":[{"mode":3,"attributes":{"POSITION":21},"material":21}]},{"primitives":[{"mode":3,"attributes":{"POSITION":22},"material":22}]},{"primitives":[{"mode":3,"attributes":{"POSITION":23},"material":23}]},{"primitives":[{"mode":3,"attributes":{"POSITION":24},"material":24}]},{"primitives":[{"mode":3,"attributes":{"POSITION":25},"material":25}]},{"primitives":[{"mode":3,"attributes":{"POSITION":26},"material":26}]},{"primitives":[{"mode":3,"attributes":{"POSITION":27},"material":27}]},{"primitives":[{"mode":3,"attributes":{"POSITION":28},"material":28}]},{"primitives":[{"mode":3,"attributes":{"POSITION":29},"material":29}]},{"primitives":[{"mode":3,"attributes":{"POSITION":30},"material":30}]},{"primitives":[{"mode":3,"attributes":{"POSITION":31},"material":31}]},{"primitives":[{"mode":3,"attributes":{"POSITION":32},"material":32}]},{"primitives":[{"mode":3,"attributes":{"POSITION":33},"material":33}]},{"primitives":[{"mode":3,"attributes":{"POSITION":34},"material":34}]},{"primitives":[{"mode":3,"attributes":{"POSITION":35},"material":35}]},{"primitives":[{"mode":3,"attributes":{"POSITION":36},"material":36}]},{"primitives":[{"mode":3,"attributes":{"POSITION":37},"material":37}]},{"primitives":[{"mode":3,"attributes":{"POSITION":38},"material":38}]},{"primitives":[{"mode":3,"attributes":{"POSITION":39},"material":39}]},{"primitives":[{"mode":1,"attributes":{"POSITION":40},"material":40}]}]}